HIERARCHY
ROOT hip
{
OFFSET 0.40 88.69 -2.05
CHANNELS 6 Xposition Yposition Zposition Zrotation Xrotation Yrotation
JOINT abdomen
{
OFFSET 0 7.23 0
CHANNELS 6 Xposition Yposition Zposition Zrotation Xrotation Yrotation
JOINT chest
{
OFFSET 0 16.54 0
CHANNELS 6 Xposition Yposition Zposition Zrotation Xrotation Yrotation
JOINT neck
{
OFFSET 0 34.21 0
CHANNELS 6 Xposition Yposition Zposition Zrotation Xrotation Yrotation
JOINT head
{
OFFSET 0 6.29 0
CHANNELS 6 Xposition Yposition Zposition Zrotation Xrotation Yrotation
End Site
{
OFFSET 0 21.21 0
}
}
}
JOINT lCollar
{
OFFSET 4.06 26.61 -1.12
CHANNELS 6 Xposition Yposition Zposition Zrotation Xrotation Yrotation
JOINT lShldr
{
OFFSET 14.17 0 0
CHANNELS 6 Xposition Yposition Zposition Zrotation Xrotation Yrotation
JOINT lForeArm
{
OFFSET 26.12 0 0
CHANNELS 6 Xposition Yposition Zposition Zrotation Xrotation Yrotation
JOINT lHand
{
OFFSET 27.71 0 0
CHANNELS 6 Xposition Yposition Zposition Zrotation Xrotation Yrotation
JOINT lThumb1
{
OFFSET 2.29 -0.46 1.83
CHANNELS 6 Xposition Yposition Zposition Zrotation Xrotation Yrotation
JOINT lThumb2
{
OFFSET 5.29 0 0
CHANNELS 6 Xposition Yposition Zposition Zrotation Xrotation Yrotation
JOINT lThumb3
{
OFFSET 3.01 0 0
CHANNELS 6 Xposition Yposition Zposition Zrotation Xrotation Yrotation
End Site
{
OFFSET 2.62 0 0
}
}
}
}
JOINT lIndex1
{
OFFSET 9.37 0.29 2.59
CHANNELS 6 Xposition Yposition Zposition Zrotation Xrotation Yrotation
JOINT lIndex2
{
OFFSET 4.34 0 0
CHANNELS 6 Xposition Yposition Zposition Zrotation Xrotation Yrotation
JOINT lIndex3
{
OFFSET 2.16 0 0
CHANNELS 6 Xposition Yposition Zposition Zrotation Xrotation Yrotation
End Site
{
OFFSET 2.20 0 0
}
}
}
}
JOINT lMid1
{
OFFSET 9.47 0.83 0.29
CHANNELS 6 Xposition Yposition Zposition Zrotation Xrotation Yrotation
JOINT lMid2
{
OFFSET 4.77 0 0
CHANNELS 6 Xposition Yposition Zposition Zrotation Xrotation Yrotation
JOINT lMid3
{
OFFSET 2.87 0 0
CHANNELS 6 Xposition Yposition Zposition Zrotation Xrotation Yrotation
End Site
{
OFFSET 2.09 0 0
}
}
}
}
JOINT lRing1
{
OFFSET 8.65 1.01 -1.70
CHANNELS 6 Xposition Yposition Zposition Zrotation Xrotation Yrotation
JOINT lRing2
{
OFFSET 4.54 0 0
CHANNELS 6 Xposition Yposition Zposition Zrotation Xrotation Yrotation
JOINT lRing3
{
OFFSET 2.50 0 0
CHANNELS 6 Xposition Yposition Zposition Zrotation Xrotation Yrotation
End Site
{
OFFSET 2.20 0 0
}
}
}
}
JOINT lPinky1
{
OFFSET 7.69 0.66 -3.90
CHANNELS 6 Xposition Yposition Zposition Zrotation Xrotation Yrotation
JOINT lPinky2
{
OFFSET 3.21 0 0
CHANNELS 6 Xposition Yposition Zposition Zrotation Xrotation Yrotation
JOINT lPinky3
{
OFFSET 1.92 0 0
CHANNELS 6 Xposition Yposition Zposition Zrotation Xrotation Yrotation
End Site
{
OFFSET 1.78 0 0
}
}
}
}
}
}
}
}
JOINT rCollar
{
OFFSET -4.06 26.61 -1.12
CHANNELS 6 Xposition Yposition Zposition Zrotation Xrotation Yrotation
JOINT rShldr
{
OFFSET -14.17 0 0
CHANNELS 6 Xposition Yposition Zposition Zrotation Xrotation Yrotation
JOINT rForeArm
{
OFFSET -26.12 0 0
CHANNELS 6 Xposition Yposition Zposition Zrotation Xrotation Yrotation
JOINT rHand
{
OFFSET -27.71 0 0
CHANNELS 6 Xposition Yposition Zposition Zrotation Xrotation Yrotation
JOINT rThumb1
{
OFFSET -2.29 -0.46 1.83
CHANNELS 6 Xposition Yposition Zposition Zrotation Xrotation Yrotation
JOINT rThumb2
{
OFFSET -5.29 0 0
CHANNELS 6 Xposition Yposition Zposition Zrotation Xrotation Yrotation
JOINT rThumb3
{
OFFSET -3.01 0 0
CHANNELS 6 Xposition Yposition Zposition Zrotation Xrotation Yrotation
End Site
{
OFFSET -2.62 0 0
}
}
}
}
JOINT rIndex1
{
OFFSET -9.37 0.29 2.59
CHANNELS 6 Xposition Yposition Zposition Zrotation Xrotation Yrotation
JOINT rIndex2
{
OFFSET -4.34 0 0
CHANNELS 6 Xposition Yposition Zposition Zrotation Xrotation Yrotation
JOINT rIndex3
{
OFFSET -2.16 0 0
CHANNELS 6 Xposition Yposition Zposition Zrotation Xrotation Yrotation
End Site
{
OFFSET -2.20 0 0
}
}
}
}
JOINT rMid1
{
OFFSET -9.47 0.83 0.29
CHANNELS 6 Xposition Yposition Zposition Zrotation Xrotation Yrotation
JOINT rMid2
{
OFFSET -4.77 0 0
CHANNELS 6 Xposition Yposition Zposition Zrotation Xrotation Yrotation
JOINT rMid3
{
OFFSET -2.87 0 0
CHANNELS 6 Xposition Yposition Zposition Zrotation Xrotation Yrotation
End Site
{
OFFSET -2.09 0 0
}
}
}
}
JOINT rRing1
{
OFFSET -8.65 1.01 -1.70
CHANNELS 6 Xposition Yposition Zposition Zrotation Xrotation Yrotation
JOINT rRing2
{
OFFSET -4.54 0 0
CHANNELS 6 Xposition Yposition Zposition Zrotation Xrotation Yrotation
JOINT rRing3
{
OFFSET -2.50 0 0
CHANNELS 6 Xposition Yposition Zposition Zrotation Xrotation Yrotation
End Site
{
OFFSET -2.20 0 0
}
}
}
}
JOINT rPinky1
{
OFFSET -7.69 0.66 -3.90
CHANNELS 6 Xposition Yposition Zposition Zrotation Xrotation Yrotation
JOINT rPinky2
{
OFFSET -3.21 0 0
CHANNELS 6 Xposition Yposition Zposition Zrotation Xrotation Yrotation
JOINT rPinky3
{
OFFSET -1.92 0 0
CHANNELS 6 Xposition Yposition Zposition Zrotation Xrotation Yrotation
End Site
{
OFFSET -1.78 0 0
}
}
}
}
}
}
}
}
}
}
JOINT lThigh
{
OFFSET 8.73 -0 0
CHANNELS 6 Xposition Yposition Zposition Zrotation Xrotation Yrotation
JOINT lShin
{
OFFSET 0 -46.66 0
CHANNELS 6 Xposition Yposition Zposition Zrotation Xrotation Yrotation
JOINT lFoot
{
OFFSET 0 -40.14 0
CHANNELS 6 Xposition Yposition Zposition Zrotation Xrotation Yrotation
JOINT lToes
{
OFFSET 0 -8.88 14.22
CHANNELS 6 Xposition Yposition Zposition Zrotation Xrotation Yrotation
End Site
{
OFFSET 0 0 6.29
}
}
}
}
}
JOINT rThigh
{
OFFSET -8.73 0 -0
CHANNELS 6 Xposition Yposition Zposition Zrotation Xrotation Yrotation
JOINT rShin
{
OFFSET 0 -46.66 0
CHANNELS 6 Xposition Yposition Zposition Zrotation Xrotation Yrotation
JOINT rFoot
{
OFFSET 0 -40.14 0
CHANNELS 6 Xposition Yposition Zposition Zrotation Xrotation Yrotation
JOINT rToes
{
OFFSET 0 -8.88 14.22
CHANNELS 6 Xposition Yposition Zposition Zrotation Xrotation Yrotation
End Site
{
OFFSET 0 0 6.29
}
}
}
}
}
}
MOTION
Frames: 4
Frame Time: 0.03
-0.30 84.02 5.15 -3.27 6.23 62.80 0 7.23 0 2.48 0.64 2.75 0 16.54 0 6.54 3.25 4.68 0 34.21 0 -4.44 43.49 -0.92 0 6.29 0 3.20 -13.71 -15.35 4.06 26.61 -1.12 -6.50 -1.51 -11.25 14.17 0 0 -43.26 -16.93 -45.11 26.12 0 0 -0.83 1.07 -104.14 27.71 0 0 -37.20 -22.86 -40.77 2.29 -0.46 1.83 -34.50 82.28 -2.18 5.29 0 0 -58.93 -22.63 15.88 3.01 0 0 -14.63 -6.25 14.01 9.37 0.29 2.59 -95.00 -13.32 11.82 4.34 0 0 -92.51 -13.40 13.08 2.16 0 0 -48.54 -4.31 9.09 9.47 0.83 0.29 -94.39 -16.05 11.97 4.77 0 0 -91.00 -16.37 16.18 2.87 0 0 -41.82 -3.96 12.14 8.65 1.01 -1.70 -95.81 -9.49 11.66 4.54 0 0 -94.01 -9.61 8.96 2.50 0 0 -40.33 -2.07 6.85 7.69 0.66 -3.90 -91.90 -20.21 16.63 3.21 0 0 -89.29 -16.96 21.47 1.92 0 0 -40.01 -4.94 15.30 -4.06 26.61 -1.12 -27.31 -8.25 8.93 -14.17 0 0 34.55 -7.10 25.18 -26.12 0 0 0.67 0.32 51.09 -27.71 0 0 13.53 40.15 -17.36 -2.29 -0.46 1.83 -144.33 71.58 -171.00 -5.29 0 0 87.24 35.98 -0.68 -3.01 0 0 22.67 20.65 -11.14 -9.37 0.29 2.59 89.61 -12.29 -11.86 -4.34 0 0 94.87 -14.01 -13.12 -2.16 0 0 49.70 -4.53 -9.31 -9.47 0.83 0.29 89.01 -15.03 -12.00 -4.77 0 0 93.31 -17.09 -16.23 -2.87 0 0 42.96 -4.20 -12.43 -8.65 1.01 -1.70 90.42 -8.47 -11.72 -4.54 0 0 96.41 -10.06 -8.99 -2.50 0 0 41.52 -2.20 -7.05 -7.69 0.66 -3.90 87.99 -19.55 -12.31 -3.21 0 0 90.06 -21.69 -21.67 -1.92 0 0 41.11 -5.22 -15.67 8.73 -0 0 -20.13 -46.78 -14.01 0 -46.66 0 8.02 48.57 -11.58 0 -40.14 0 3.30 -6.34 -13.06 0 -8.88 14.22 0 0 0 -8.73 0 -0 -4.34 -10.72 -8.52 0 -46.66 0 -3.65 61.77 -10.12 0 -40.14 0 -2.72 -1.51 1.04 0 -8.88 14.22 -0 0 0 
-0.71 84.05 5.56 -3.87 6.30 61.71 0 7.23 0 2.06 0.70 2.98 0 16.54 0 5.67 3.38 5.22 0 34.21 0 -4.57 43.31 -0.58 0 6.29 0 3.37 -14.35 -13.74 4.06 26.61 -1.12 -6.17 -1.70 -11.20 14.17 0 0 -43.03 -17.40 -45.29 26.12 0 0 -0.83 1.06 -103.79 27.71 0 0 -37.90 -22.73 -41.31 2.29 -0.46 1.83 -34.50 82.28 -2.18 5.29 0 0 -58.93 -22.63 15.88 3.01 0 0 -14.63 -6.25 14.01 9.37 0.29 2.59 -95.00 -13.32 11.82 4.34 0 0 -92.51 -13.40 13.08 2.16 0 0 -48.54 -4.31 9.09 9.47 0.83 0.29 -94.39 -16.05 11.97 4.77 0 0 -91.00 -16.37 16.18 2.87 0 0 -41.82 -3.96 12.14 8.65 1.01 -1.70 -95.81 -9.49 11.66 4.54 0 0 -94.01 -9.61 8.96 2.50 0 0 -40.33 -2.07 6.85 7.69 0.66 -3.90 -91.90 -20.21 16.63 3.21 0 0 -89.29 -16.96 21.47 1.92 0 0 -40.01 -4.94 15.30 -4.06 26.61 -1.12 -23.67 -7.76 10.17 -14.17 0 0 36.44 -10.38 26.72 -26.12 0 0 0.67 0.32 51.31 -27.71 0 0 12.03 40.43 -17.76 -2.29 -0.46 1.83 -144.33 71.58 -171.00 -5.29 0 0 87.24 35.98 -0.68 -3.01 0 0 22.67 20.65 -11.14 -9.37 0.29 2.59 89.61 -12.29 -11.86 -4.34 0 0 94.87 -14.01 -13.12 -2.16 0 0 49.70 -4.53 -9.31 -9.47 0.83 0.29 89.01 -15.03 -12.00 -4.77 0 0 93.31 -17.09 -16.23 -2.87 0 0 42.96 -4.20 -12.43 -8.65 1.01 -1.70 90.42 -8.47 -11.72 -4.54 0 0 96.41 -10.06 -8.99 -2.50 0 0 41.52 -2.20 -7.05 -7.69 0.66 -3.90 87.99 -19.55 -12.31 -3.21 0 0 90.06 -21.69 -21.67 -1.92 0 0 41.11 -5.22 -15.67 8.73 -0 0 -19.42 -47.61 -13.68 0 -46.66 0 9.21 48.75 -11.51 0 -40.14 0 2.40 -6.71 -12.83 0 -8.88 14.22 0 0 0 -8.73 0 -0 -5.15 -11.29 -11.29 0 -46.66 0 -3.79 61.76 -9.93 0 -40.14 0 -3.94 -2.56 1.36 0 -8.88 14.22 0 0 0 
-0.92 84.32 5.71 -4.54 6.50 59.27 0 7.23 0 1.74 0.75 2.98 0 16.54 0 4.97 3.46 5.28 0 34.21 0 -4.42 43.17 -0.43 0 6.29 0 3.22 -15.04 -12.43 4.06 26.61 -1.12 -5.85 -1.89 -10.99 14.17 0 0 -43.07 -18.33 -45.08 26.12 0 0 -0.83 1.06 -103.92 27.71 0 0 -37.93 -22.88 -40.94 2.29 -0.46 1.83 -34.50 82.28 -2.18 5.29 0 0 -58.93 -22.63 15.88 3.01 0 0 -14.63 -6.25 14.01 9.37 0.29 2.59 -95.00 -13.32 11.82 4.34 0 0 -92.51 -13.40 13.08 2.16 0 0 -48.54 -4.31 9.09 9.47 0.83 0.29 -94.39 -16.05 11.97 4.77 0 0 -91.00 -16.37 16.18 2.87 0 0 -41.82 -3.96 12.14 8.65 1.01 -1.70 -95.81 -9.49 11.66 4.54 0 0 -94.01 -9.61 8.96 2.50 0 0 -40.33 -2.07 6.85 7.69 0.66 -3.90 -91.90 -20.21 16.63 3.21 0 0 -89.29 -16.96 21.47 1.92 0 0 -40.01 -4.94 15.30 -4.06 26.61 -1.12 -18.90 -6.66 9.95 -14.17 0 0 39.40 -14.43 27.09 -26.12 0 0 0.69 0.35 54.18 -27.71 0 0 10.55 40.72 -17.75 -2.29 -0.46 1.83 -144.33 71.58 -171.00 -5.29 0 0 87.24 35.98 -0.68 -3.01 0 0 22.67 20.65 -11.14 -9.37 0.29 2.59 89.61 -12.29 -11.86 -4.34 0 0 94.87 -14.01 -13.12 -2.16 0 0 49.70 -4.53 -9.31 -9.47 0.83 0.29 89.01 -15.03 -12.00 -4.77 0 0 93.31 -17.09 -16.23 -2.87 0 0 42.96 -4.20 -12.43 -8.65 1.01 -1.70 90.42 -8.47 -11.72 -4.54 0 0 96.41 -10.06 -8.99 -2.50 0 0 41.52 -2.20 -7.05 -7.69 0.66 -3.90 87.99 -19.55 -12.31 -3.21 0 0 90.06 -21.69 -21.67 -1.92 0 0 41.11 -5.22 -15.67 8.73 -0 0 -17.97 -48.36 -12.67 0 -46.66 0 10.32 48.40 -11.59 0 -40.14 0 1.36 -6.88 -11.58 0 -8.88 14.22 0 0 -0 -8.73 0 -0 -5.62 -12.07 -12.11 0 -46.66 0 -3.95 61.29 -9.72 0 -40.14 0 -4.52 -3.12 1.15 0 -8.88 14.22 0 0 0 
-0.67 84.88 5.46 -4.95 6.65 55.30 0 7.23 0 1.45 0.76 2.69 0 16.54 0 4.43 3.47 4.78 0 34.21 0 -4.28 43.11 -0.26 0 6.29 0 2.75 -15.31 -11.18 4.06 26.61 -1.12 -5.73 -2.00 -10.50 14.17 0 0 -43.60 -19.16 -44.44 26.12 0 0 -0.83 1.07 -104.56 27.71 0 0 -36.67 -23.02 -39.63 2.29 -0.46 1.83 -34.50 82.28 -2.18 5.29 0 0 -58.93 -22.63 15.88 3.01 0 0 -14.63 -6.25 14.01 9.37 0.29 2.59 -95.00 -13.32 11.82 4.34 0 0 -92.51 -13.40 13.08 2.16 0 0 -48.54 -4.31 9.09 9.47 0.83 0.29 -94.39 -16.05 11.97 4.77 0 0 -91.00 -16.37 16.18 2.87 0 0 -41.82 -3.96 12.14 8.65 1.01 -1.70 -95.81 -9.49 11.66 4.54 0 0 -94.01 -9.61 8.96 2.50 0 0 -40.33 -2.07 6.85 7.69 0.66 -3.90 -91.90 -20.21 16.63 3.21 0 0 -89.29 -16.96 21.47 1.92 0 0 -40.01 -4.94 15.30 -4.06 26.61 -1.12 -14.03 -5.57 9.61 -14.17 0 0 43.19 -18.25 26.67 -26.12 0 0 0.73 0.40 58.35 -27.71 0 0 9.93 41.14 -17.56 -2.29 -0.46 1.83 -144.33 71.58 -171.00 -5.29 0 0 87.24 35.98 -0.68 -3.01 0 0 22.67 20.65 -11.14 -9.37 0.29 2.59 89.61 -12.29 -11.86 -4.34 0 0 94.87 -14.01 -13.12 -2.16 0 0 49.70 -4.53 -9.31 -9.47 0.83 0.29 89.01 -15.03 -12.00 -4.77 0 0 93.31 -17.09 -16.23 -2.87 0 0 42.96 -4.20 -12.43 -8.65 1.01 -1.70 90.42 -8.47 -11.72 -4.54 0 0 96.41 -10.06 -8.99 -2.50 0 0 41.52 -2.20 -7.05 -7.69 0.66 -3.90 87.99 -19.55 -12.31 -3.21 0 0 90.06 -21.69 -21.67 -1.92 0 0 41.11 -5.22 -15.67 8.73 -0 0 -15.49 -48.53 -10.71 0 -46.66 0 10.76 47.51 -10.60 0 -40.14 0 0.23 -6.81 -9.98 0 -8.88 14.22 0 0 0 -8.73 0 -0 -6.12 -12.88 -11.25 0 -46.66 0 -3.91 60.29 -9.66 0 -40.14 0 -5.13 -1.98 0.79 0 -8.88 14.22 0 0 0 
